<svg xmlns="http://www.w3.org/2000/svg" xmlns:xlink="http://www.w3.org/1999/xlink" width="1167" height="710" viewBox="0 0 1167 710">
  <defs>
    <filter id="Rechteck_1000" x="62" y="161" width="1064" height="302" filterUnits="userSpaceOnUse">
      <feOffset dy="6" input="SourceAlpha"/>
      <feGaussianBlur stdDeviation="6" result="blur"/>
      <feFlood flood-color="#7ac74f"/>
      <feComposite operator="in" in2="blur"/>
      <feComposite in="SourceGraphic"/>
    </filter>
    <filter id="Rechteck_999" x="62" y="244" width="1064" height="372" filterUnits="userSpaceOnUse">
      <feOffset dy="6" input="SourceAlpha"/>
      <feGaussianBlur stdDeviation="6" result="blur-2"/>
      <feFlood flood-color="#f4ab4e"/>
      <feComposite operator="in" in2="blur-2"/>
      <feComposite in="SourceGraphic"/>
    </filter>
    <filter id="Rechteck_999-2" x="62" y="314" width="1064" height="302" filterUnits="userSpaceOnUse">
      <feOffset dy="6" input="SourceAlpha"/>
      <feGaussianBlur stdDeviation="6" result="blur-3"/>
      <feFlood flood-color="#d3837b"/>
      <feComposite operator="in" in2="blur-3"/>
      <feComposite in="SourceGraphic"/>
    </filter>
    <clipPath id="clip-Artboard_1">
      <rect width="1167" height="710"/>
    </clipPath>
  </defs>
  <g id="Artboard_1" data-name="Artboard – 1" clip-path="url(#clip-Artboard_1)">
    <rect width="1167" height="710" fill="#fff"/>
    <g id="Event_Blok" data-name="Event Blok" transform="translate(44 -349.533)">
      <g id="Event_Block" data-name="Event Block" transform="translate(36 523)">
        <g transform="matrix(1, 0, 0, 1, -80, -173.47)" filter="url(#Rechteck_1000)">
          <g id="Rechteck_1000-2" data-name="Rechteck 1000" transform="translate(80 173)" fill="#fff" stroke="#7ac74f" stroke-width="3" opacity="0.997">
            <rect width="1028" height="266" rx="20" stroke="none"/>
            <rect x="1.5" y="1.5" width="1025" height="263" rx="18.5" fill="none"/>
          </g>
        </g>
        <text id="Event" transform="translate(215.515 107.444)" font-size="56" font-family="Roboto-Medium, Roboto" font-weight="500"><tspan x="0" y="0">Event</tspan></text>
        <text id="Helen_arrived_at_her_home." data-name="Helen arrived at her home." transform="translate(217 178.533)" font-size="45" font-family="Roboto-Regular, Roboto"><tspan x="0" y="0">Helen arrived at her home.</tspan></text>
        <text id="_13:37" data-name="13:37" transform="translate(857 76.533)" fill="#707070" font-size="46" font-family="Roboto-Regular, Roboto"><tspan x="0" y="0">13:37</tspan></text>
      </g>
      <g id="Info_icon" data-name="Info icon" transform="translate(88.371 591.525)">
        <g id="eventicon" transform="translate(0 0)">
          <path id="Pfad_18034" data-name="Pfad 18034" d="M52.669.11C96.955-2.64,126.277,46.969,102.812,84.84c-20.843,33.639-69.474,35.269-92.437,2.993C-15.122,51.991,9.193,2.808,52.669.11m-2.138,8.56C21.22,11.076,1.744,42.044,10.571,69.809c10.1,31.752,49.578,43.736,75.336,22.017C121.379,61.918,97.415,4.818,50.531,8.669" transform="translate(-0.001 0)" fill="#7ac74f"/>
          <path id="Pfad_18035" data-name="Pfad 18035" d="M63.612,45.975V82.167c0,2.44,6.531,2.532,8.2,2.316l0,4.281H38.652V84.485h5.171a3.516,3.516,0,0,0,3.01-2.695c-.57-8.712.827-18.517.037-27.1a4.008,4.008,0,0,0-3.761-3.727H37.582l0-3.924Z" transform="translate(0.896 1.097)" fill="#7ac74f"/>
          <path id="Pfad_18036" data-name="Pfad 18036" d="M52.32,20.993a9.967,9.967,0,0,1,9.069,4.293C67.235,34.4,56,44.682,47.406,37.844,40.85,32.627,44.25,22.07,52.32,20.993" transform="translate(1.048 0.499)" fill="#7ac74f"/>
        </g>
      </g>
    </g>
    <g id="New_Warning_Block" data-name="New Warning Block" transform="translate(58 -102.966)">
      <g id="Warning_Block" data-name="Warning Block" transform="translate(22 359)">
        <g transform="matrix(1, 0, 0, 1, -80, -256.03)" filter="url(#Rechteck_999)">
          <g id="Rechteck_999-3" data-name="Rechteck 999" transform="translate(80 256)" fill="#fff" stroke="#f4ab4e" stroke-width="3">
            <rect width="1028" height="336" rx="20" stroke="none"/>
            <rect x="1.5" y="1.5" width="1025" height="333" rx="18.5" fill="none"/>
          </g>
        </g>
        <text id="_13:45" data-name="13:45" transform="translate(856 76.966)" fill="#707070" font-size="46" font-family="Roboto-Regular, Roboto"><tspan x="0" y="0">13:45</tspan></text>
      </g>
      <g id="Gruppe_3114" data-name="Gruppe 3114" transform="translate(63.155 447.55)">
        <path id="Pfad_18037" data-name="Pfad 18037" d="M3.957,121.243a4,4,0,0,1-3.369-1.8,3.642,3.642,0,0,1-.163-3.689L60.353,2.081A3.98,3.98,0,0,1,63.886,0H63.9A3.975,3.975,0,0,1,67.43,2.1l58.947,113.633a3.642,3.642,0,0,1-.181,3.676,4,4,0,0,1-3.362,1.79l-118.875.042Zm59.9-109L10.385,113.672l106.069-.038Z" transform="translate(0 0)" fill="#f4ab4e"/>
        <g id="Gruppe_2295" data-name="Gruppe 2295" transform="translate(55.943 42.879)">
          <g id="Gruppe_3198" data-name="Gruppe 3198">
            <path id="Pfad_18038" data-name="Pfad 18038" d="M64.083,85.618c-.925.661-2.7-7.438-2.866-8.114-2.183-9.005-3.538-18.222-5.17-27.331,1.547-8.392,14.562-8.035,15.51.442-2.245,11.7-3.7,23.649-7.474,35" transform="translate(-56.048 -44.064)" fill="#f4ab4e"/>
            <path id="Pfad_18039" data-name="Pfad 18039" d="M63.253,98.955a7.182,7.182,0,0,1,6.424,2.908c4.14,6.175-3.819,13.139-9.905,8.507-4.643-3.534-2.235-10.686,3.481-11.415" transform="translate(-56.141 -50.278)" fill="#f4ab4e"/>
          </g>
        </g>
      </g>
      <text id="Warning" transform="translate(235.874 466.72)" font-size="56" font-family="Roboto-Medium, Roboto" font-weight="500"><tspan x="0" y="0">Warning</tspan></text>
      <text id="Helen_may_have_lost_her_way_or_taken_a_different_path." data-name="Helen may have lost her way
or taken a different path." transform="translate(234 540.966)" font-size="45" font-family="Roboto-Regular, Roboto"><tspan x="0" y="0">Helen may have lost her way</tspan><tspan x="0" y="54">or taken a different path.</tspan></text>
    </g>
    <g id="Emergency_Block" data-name="Emergency Block" transform="translate(57 -12.567)">
      <g transform="matrix(1, 0, 0, 1, -57, 12.57)" filter="url(#Rechteck_999-2)">
        <g id="Rechteck_999-4" data-name="Rechteck 999" transform="translate(80 326)" fill="#fff" stroke="#dd5f5f" stroke-width="3">
          <rect width="1028" height="266" rx="20" stroke="none"/>
          <rect x="1.5" y="1.5" width="1025" height="263" rx="18.5" fill="none"/>
        </g>
      </g>
      <text id="Emergency" transform="translate(240 449.567)" font-size="56" font-family="Roboto-Medium, Roboto" font-weight="500"><tspan x="0" y="0">Emergency</tspan></text>
      <text id="Helen_made_an_emergency_call" data-name="Helen made an emergency call" transform="translate(240 520.567)" font-size="48" font-family="Roboto-Regular, Roboto"><tspan x="0" y="0">Helen made an emergency call</tspan></text>
      <text id="_13:45-2" data-name="13:45" transform="translate(880 415.567)" fill="#707070" font-size="46" font-family="Roboto-Regular, Roboto"><tspan x="0" y="0">13:45</tspan></text>
      <g id="Emergency_Icon" data-name="Emergency Icon" transform="translate(84.954 414.976)">
        <path id="Pfad_18045" data-name="Pfad 18045" d="M1561.752,453.907h42.8l28.271,26.78v45.778l-28.271,26.779h-42.8l-28.271-26.779V480.687Z" transform="translate(-1533.482 -453.907)" fill="#fff" stroke="#dd5f5f" stroke-width="6"/>
        <path id="Pfad_18038-2" data-name="Pfad 18038" d="M65.4,92.422c-1.077.77-3.144-8.656-3.335-9.443-2.541-10.48-4.117-21.206-6.016-31.806,1.8-9.766,16.946-9.351,18.049.514C71.484,65.3,69.791,79.208,65.4,92.422" transform="translate(-15.404 -26.677)" fill="#dd5f5f"/>
        <path id="Pfad_18039-2" data-name="Pfad 18039" d="M64.224,98.963a8.358,8.358,0,0,1,7.476,3.385c4.818,7.186-4.444,15.291-11.527,9.9-5.4-4.113-2.6-12.435,4.051-13.285" transform="translate(-15.301 -29.335)" fill="#dd5f5f"/>
      </g>
    </g>
  </g>
</svg>
